<?xml version="1.0" standalone="no"?>
<!DOCTYPE svg PUBLIC "-//W3C//DTD SVG 20010904//EN"
 "http://www.w3.org/TR/2001/REC-SVG-20010904/DTD/svg10.dtd">
<svg version="1.0" xmlns="http://www.w3.org/2000/svg"
 width="560.000000pt" height="558.000000pt" viewBox="0 0 560.000000 558.000000"
 preserveAspectRatio="xMidYMid meet">

<g transform="translate(0.000000,558.000000) scale(0.100000,-0.100000)"
fill="#000000" stroke="none">
<path d="M80 2770 l0 -2710 2710 0 2710 0 0 2710 0 2710 -2710 0 -2710 0 0
-2710z m5400 0 l0 -2690 -2690 0 -2690 0 0 2690 0 2690 2690 0 2690 0 0 -2690z"/>
<path d="M1740 2827 l0 -1573 200 -2 200 -3 0 505 0 505 265 313 c146 172 269
312 272 312 4 -1 217 -368 474 -815 l467 -814 225 -3 225 -2 -570 975 c-391
670 -567 980 -560 988 5 7 224 274 486 595 262 320 476 584 476 587 0 3 -100
5 -222 5 l-223 -1 -630 -759 c-346 -418 -640 -772 -653 -787 -18 -23 -24 -25
-31 -14 -6 9 -7 336 -4 788 l5 773 -201 0 -201 0 0 -1573z"/>
</g>
</svg>
